<?xml version="1.0" standalone="no"?>
<!DOCTYPE svg PUBLIC "-//W3C//DTD SVG 20010904//EN"
 "http://www.w3.org/TR/2001/REC-SVG-20010904/DTD/svg10.dtd">
<svg version="1.0" xmlns="http://www.w3.org/2000/svg"
 width="1024.000000pt" height="1024.000000pt" viewBox="0 0 1024.000000 1024.000000"
 preserveAspectRatio="xMidYMid meet">

<g transform="translate(0.000000,1024.000000) scale(0.100000,-0.100000)"
fill="#000000" stroke="none">
<path d="M0 5375 c0 -4722 1 -4865 18 -4865 11 0 26 -8 36 -18 14 -16 15 -32
10 -104 l-7 -84 -28 4 -29 4 0 -156 0 -156 5120 0 5120 0 0 5120 0 5120 -5120
0 -5120 0 0 -4865z m5560 3400 c368 -43 650 -113 980 -242 247 -97 567 -269
785 -422 229 -160 475 -382 673 -606 115 -130 309 -380 337 -435 8 -16 44 -73
78 -127 138 -214 287 -534 381 -820 78 -238 121 -430 176 -788 6 -38 13 -171
17 -295 6 -242 -7 -421 -49 -690 -11 -74 -21 -146 -22 -160 0 -14 -3 -27 -7
-30 -3 -3 -15 -45 -27 -95 -27 -110 -110 -373 -164 -515 -64 -169 -159 -357
-284 -565 -178 -294 -306 -457 -554 -705 -304 -303 -657 -564 -995 -735 -78
-39 -172 -84 -210 -99 -298 -120 -504 -187 -695 -226 -166 -35 -195 -39 -425
-71 -594 -81 -1347 22 -1890 259 -123 53 -409 205 -503 266 -53 34 -122 78
-152 98 -131 84 -398 306 -568 473 -166 162 -236 243 -393 452 -192 256 -447
707 -528 934 -11 30 -29 79 -41 109 -27 69 -54 151 -85 260 -13 47 -35 126
-49 175 -14 50 -30 115 -36 145 -5 30 -12 66 -14 80 -70 347 -70 824 0 1235
68 399 238 881 418 1190 163 278 349 527 562 756 497 532 1213 950 1919 1120
208 49 340 70 615 93 109 9 622 -3 750 -19z m-4102 -5060 c-3 -3 -9 2 -12 12
-6 14 -5 15 5 6 7 -7 10 -15 7 -18z m-1225 -3350 c5 -5 6 -54 3 -108 -4 -54
-3 -97 1 -95 87 41 96 50 64 67 -18 10 -46 69 -37 78 7 7 70 -28 83 -46 34
-44 5 -109 -66 -145 -28 -15 -38 -16 -62 -5 -17 6 -34 20 -39 30 -11 20 -14
252 -3 262 6 7 37 -15 56 -38z"/>
<path d="M4865 8073 c-278 -23 -627 -95 -863 -178 -240 -85 -463 -199 -711
-364 -436 -290 -796 -704 -1045 -1201 -146 -292 -245 -592 -296 -895 -67 -396
-41 -970 60 -1310 53 -178 138 -425 151 -441 5 -7 7 -25 4 -41 -4 -20 -3 -23
3 -9 8 18 9 18 15 2 4 -10 4 -23 0 -28 -3 -7 -1 -8 5 -4 7 4 12 2 12 -4 0 -6
23 -56 50 -111 45 -89 65 -137 41 -101 -6 10 -10 9 -14 -7 -3 -12 -1 -19 4
-16 4 3 12 -9 17 -27 5 -18 15 -32 22 -30 8 2 10 -3 7 -13 -4 -9 -1 -15 9 -15
11 0 14 5 9 18 -18 45 -14 43 14 -7 17 -30 38 -62 46 -71 8 -9 15 -25 15 -35
0 -10 3 -15 7 -12 3 4 22 -17 41 -46 37 -54 139 -185 158 -202 33 -29 154
-176 154 -186 0 -7 3 -9 7 -6 3 4 12 2 20 -4 10 -9 11 -15 2 -26 -9 -11 -9
-17 1 -26 9 -9 11 -9 6 0 -3 6 -2 15 4 18 15 9 42 -15 36 -32 -4 -8 0 -13 8
-11 19 4 88 -60 80 -74 -5 -7 -2 -9 8 -5 10 3 24 -3 35 -15 29 -32 278 -216
398 -294 237 -154 564 -303 813 -370 54 -14 120 -32 147 -40 111 -31 412 -75
583 -85 447 -26 935 52 1352 216 289 114 613 298 802 458 28 23 71 59 97 81
96 80 237 223 347 352 291 340 520 786 654 1274 82 299 120 694 101 1029 -17
284 -48 436 -152 759 -21 68 -36 128 -33 134 4 7 2 8 -4 4 -6 -4 -17 7 -25 26
-9 18 -36 80 -62 138 -88 195 -222 422 -353 595 -329 436 -862 827 -1392 1023
-272 101 -589 177 -857 206 -127 14 -419 19 -538 9z m-1639 -1254 c79 -345
433 -840 900 -1257 315 -281 437 -418 490 -551 30 -73 43 -190 32 -282 -26
-219 -213 -393 -475 -443 -108 -20 -295 -33 -573 -40 l-225 -6 -89 124 c-165
229 -254 388 -353 631 -114 282 -157 468 -175 762 -21 342 27 594 165 870 84
166 145 239 197 235 14 -1 39 4 55 12 17 7 31 12 33 11 2 -2 10 -32 18 -66z
m2736 -54 c229 -40 432 -141 604 -299 l71 -65 54 21 c73 27 188 47 279 47 89
1 262 -21 357 -45 82 -20 213 -72 213 -85 0 -5 -39 -27 -87 -49 -172 -80 -427
-296 -583 -494 -51 -65 -109 -101 -185 -113 l-32 -5 5 -123 c15 -391 -134
-799 -388 -1062 -184 -190 -293 -283 -450 -386 -269 -176 -518 -274 -885 -348
-148 -31 -381 -33 -470 -5 -133 41 -415 167 -415 184 0 7 80 75 228 194 68 55
145 93 268 134 138 46 196 77 245 132 59 68 82 137 87 270 6 166 -17 255 -118
454 -203 402 -214 693 -39 1041 149 295 468 535 799 602 92 18 336 18 442 0z
m1108 -1345 c12 -120 12 -405 1 -470 -87 -469 -160 -667 -370 -1008 -55 -90
-158 -216 -262 -322 -147 -149 -345 -298 -504 -381 -16 -8 -39 -20 -50 -27
-81 -46 -441 -171 -555 -192 -36 -7 -76 -17 -90 -22 -54 -22 -164 -32 -370
-32 -195 0 -227 3 -340 27 -243 52 -476 144 -645 257 -22 15 -59 39 -82 53
-159 100 -548 464 -529 495 3 5 79 12 168 16 90 4 185 11 212 15 47 8 51 7
100 -31 75 -57 256 -142 376 -177 213 -62 479 -98 640 -86 357 24 577 78 818
199 62 31 117 54 123 51 5 -4 8 -1 7 7 -2 7 5 12 14 12 10 -1 16 2 13 6 -3 5
37 35 88 68 50 32 124 85 162 117 95 77 273 254 308 304 16 23 33 38 39 35 6
-4 8 -2 4 4 -3 6 14 40 39 75 25 36 45 70 45 76 0 5 9 15 20 21 11 6 20 16 20
23 0 7 -4 6 -10 -3 -16 -25 -10 3 6 30 8 14 13 17 10 7 -4 -11 -2 -16 5 -11 6
3 9 15 6 25 -3 12 -1 17 6 12 7 -4 8 0 3 13 -4 10 -4 15 0 11 11 -10 44 71 37
90 -4 10 -2 14 4 10 14 -9 23 15 16 45 -4 19 -3 20 7 8 9 -13 11 -12 9 5 -3
40 1 56 12 49 8 -4 9 1 4 16 -5 17 -4 21 6 15 9 -6 11 -2 7 13 -4 12 -2 20 3
16 5 -3 10 3 10 13 4 48 8 75 27 163 36 167 54 311 50 381 -4 57 -2 69 11 73
9 3 74 21 144 40 71 19 143 43 160 54 l32 18 12 -52 c7 -28 17 -98 23 -154z"/>
<path d="M3019 7503 c-13 -16 -12 -17 4 -4 16 13 21 21 13 21 -2 0 -10 -8 -17
-17z"/>
<path d="M2969 7463 c-13 -16 -12 -17 4 -4 9 7 17 15 17 17 0 8 -8 3 -21 -13z"/>
<path d="M2879 7383 c-13 -16 -12 -17 4 -4 9 7 17 15 17 17 0 8 -8 3 -21 -13z"/>
<path d="M7921 6630 c14 -31 19 -36 19 -24 0 6 -7 19 -16 30 -14 18 -14 18 -3
-6z"/>
<path d="M7956 6570 c8 -28 51 -100 60 -100 4 0 2 6 -4 13 -6 6 -22 35 -37 62
-14 28 -23 39 -19 25z"/>
<path d="M8021 6450 c0 -8 13 -40 29 -70 43 -79 100 -200 100 -210 0 -5 4 -11
10 -15 15 -10 -7 45 -76 182 -35 70 -64 121 -63 113z"/>
<path d="M8171 6138 c-2 -15 41 -119 46 -114 3 3 -1 20 -9 38 -8 18 -20 44
-26 58 -6 14 -11 22 -11 18z"/>
<path d="M8240 5955 c0 -5 5 -17 10 -25 5 -8 10 -10 10 -5 0 6 -5 17 -10 25
-5 8 -10 11 -10 5z"/>
<path d="M8261 5890 c0 -8 6 -28 14 -45 17 -39 18 -21 0 25 -7 19 -14 28 -14
20z"/>
<path d="M8291 5800 c0 -8 4 -22 9 -30 12 -18 12 -2 0 25 -6 13 -9 15 -9 5z"/>
<path d="M8351 5564 c0 -11 3 -14 6 -6 3 7 2 16 -1 19 -3 4 -6 -2 -5 -13z"/>
<path d="M8361 5514 c0 -11 3 -14 6 -6 3 7 2 16 -1 19 -3 4 -6 -2 -5 -13z"/>
<path d="M8372 5465 c0 -16 2 -22 5 -12 2 9 2 23 0 30 -3 6 -5 -1 -5 -18z"/>
<path d="M8392 5320 c0 -14 2 -19 5 -12 2 6 2 18 0 25 -3 6 -5 1 -5 -13z"/>
<path d="M8414 5010 c0 -63 1 -89 3 -57 2 31 2 83 0 115 -2 31 -3 5 -3 -58z"/>
<path d="M2023 3749 c-2 -23 3 -25 10 -4 4 8 3 16 -1 19 -4 3 -9 -4 -9 -15z"/>
<path d="M2030 3713 c0 -4 5 -15 10 -23 8 -13 10 -13 10 2 0 9 -4 20 -10 23
-5 3 -10 3 -10 -2z"/>
<path d="M2120 3713 c0 -4 5 -15 10 -23 8 -13 10 -13 10 2 0 9 -4 20 -10 23
-5 3 -10 3 -10 -2z"/>
<path d="M2056 3674 c-7 -19 82 -207 179 -374 80 -138 86 -145 80 -94 l-5 39
10 -33 c6 -18 15 -30 20 -27 10 6 -15 68 -43 106 -16 22 -18 22 -14 3 6 -31
-22 -26 -39 8 -8 15 -12 29 -9 29 3 1 10 3 15 4 6 1 13 3 16 4 4 0 1 8 -6 16
-11 13 -14 13 -26 -2 -16 -22 -18 -14 -4 22 7 17 7 24 0 20 -6 -3 -10 -14 -10
-23 -1 -16 -1 -15 -11 1 -5 9 -7 22 -4 28 8 12 -14 41 -26 33 -5 -3 -25 29
-45 72 -28 61 -33 79 -22 86 10 8 9 9 -3 5 -11 -4 -20 6 -29 31 -8 21 -13 43
-12 50 4 18 -5 15 -12 -4z m138 -260 c3 -8 2 -12 -4 -9 -6 3 -10 10 -10 16 0
14 7 11 14 -7z m109 -165 c-6 -6 -9 -19 -6 -28 8 -21 -1 -12 -16 16 -10 19 -9
22 4 17 8 -4 15 -1 15 7 0 7 3 9 7 6 4 -4 2 -12 -4 -18z"/>
<path d="M2126 3584 c-4 -9 -4 -19 -1 -22 2 -3 7 3 11 12 4 9 4 19 1 22 -2 3
-7 -3 -11 -12z"/>
<path d="M2191 3562 c6 -18 15 -35 20 -38 5 -3 4 7 -3 23 -17 41 -30 53 -17
15z"/>
<path d="M2235 3470 c3 -5 8 -10 11 -10 2 0 4 5 4 10 0 6 -5 10 -11 10 -5 0
-7 -4 -4 -10z"/>
<path d="M2260 3410 c0 -5 5 -10 10 -10 6 0 10 5 10 10 0 6 -4 10 -10 10 -5 0
-10 -4 -10 -10z"/>
<path d="M2350 3279 c0 -4 7 -24 15 -45 l16 -39 -20 25 c-11 14 -21 20 -21 13
0 -6 5 -15 10 -18 6 -3 10 -22 10 -41 0 -20 4 -33 10 -29 5 3 7 12 4 19 -3 8
-1 17 5 21 7 4 11 -4 10 -22 -1 -30 -16 -83 -19 -70 -1 4 -3 10 -5 15 -6 23
-18 42 -26 42 -15 0 26 -73 78 -138 26 -34 59 -76 73 -94 39 -51 92 -109 97
-105 2 3 -10 19 -27 37 -28 30 -42 69 -20 55 6 -3 10 -1 10 4 0 6 7 11 15 11
18 0 20 -17 3 -23 -10 -4 -10 -7 0 -18 10 -11 17 -8 40 16 25 27 25 28 1 7
-35 -31 -48 -28 -18 5 18 19 19 25 7 20 -10 -3 -20 -2 -23 4 -4 5 -11 6 -17 3
-8 -5 -9 -1 -5 10 4 10 7 21 7 24 0 4 5 0 11 -8 9 -13 10 -13 6 0 -2 10 -13
14 -33 12 -46 -6 -54 -15 -32 -37 19 -19 20 -19 16 -1 -1 10 2 21 8 23 16 5
12 -30 -4 -40 -8 -6 -20 0 -33 17 -11 14 -20 28 -19 31 0 3 -13 18 -30 34 -20
18 -26 28 -16 28 9 0 18 -9 22 -19 4 -15 9 -17 20 -7 16 13 20 54 4 44 -6 -3
-7 1 -4 10 6 14 8 14 20 -2 16 -21 18 -43 4 -43 -5 0 -10 -9 -10 -20 0 -11 5
-20 10 -20 6 0 10 7 10 15 0 18 12 19 28 3 8 -8 12 -8 12 -1 0 6 -7 16 -15 23
-8 7 -15 19 -15 26 0 8 -4 14 -8 14 -5 0 -15 11 -22 25 -13 24 -15 24 -32 8
-17 -15 -18 -15 -18 0 0 10 5 17 10 17 14 0 13 23 -2 43 -12 16 -14 16 -26 -4
-13 -20 -12 -21 8 -16 17 4 19 3 9 -9 -17 -21 -42 1 -29 26 12 23 13 33 1 26
-5 -4 -7 3 -4 15 3 12 1 24 -4 28 -6 3 -20 22 -32 41 -11 19 -21 32 -21 29z
m44 -191 c-3 -13 -3 -20 1 -16 12 11 39 -22 28 -33 -13 -13 -45 35 -37 55 9
25 16 19 8 -6z"/>
<path d="M2627 2893 c-4 -3 -7 -11 -7 -17 0 -6 4 -5 9 3 5 8 11 9 15 3 3 -6 2
-13 -4 -17 -5 -3 -10 -12 -10 -18 0 -7 5 -4 11 6 6 10 16 14 22 10 7 -3 3 3
-7 15 -22 25 -20 24 -29 15z"/>
<path d="M2655 2823 c1 -12 -2 -23 -8 -23 -6 0 -7 -3 -4 -6 4 -4 18 1 33 11
22 14 26 15 21 2 -4 -10 2 -16 20 -20 l25 -5 -25 26 c-22 21 -28 23 -41 12
-18 -14 -22 0 -6 16 7 7 6 11 -4 11 -9 0 -13 -9 -11 -24z"/>
<path d="M2609 2773 c12 -18 24 -33 27 -33 9 0 -15 37 -33 51 -12 10 -11 5 6
-18z"/>
<path d="M2750 2760 c0 -5 5 -10 11 -10 5 0 7 5 4 10 -3 6 -8 10 -11 10 -2 0
-4 -4 -4 -10z"/>
<path d="M2690 2740 c0 -5 5 -10 11 -10 5 0 7 5 4 10 -3 6 -8 10 -11 10 -2 0
-4 -4 -4 -10z"/>
<path d="M2782 2718 c-13 -13 -16 -38 -4 -38 4 0 13 9 19 20 14 22 2 35 -15
18z"/>
<path d="M2821 2683 c4 -21 -2 -34 -13 -27 -7 4 -8 3 -4 -5 4 -6 11 -9 15 -6
11 6 65 -21 81 -40 7 -8 17 -15 23 -15 16 0 -46 54 -63 55 -8 0 -15 9 -15 19
0 11 -6 21 -13 24 -7 2 -12 0 -11 -5z"/>
<path d="M2770 2606 c0 -2 8 -10 18 -17 15 -13 16 -12 3 4 -13 16 -21 21 -21
13z"/>
<path d="M2957 2557 c-3 -8 3 -14 16 -15 12 0 17 2 12 6 -6 4 -13 11 -16 15
-4 4 -9 2 -12 -6z"/>
<path d="M2830 2546 c0 -2 8 -10 18 -17 15 -13 16 -12 3 4 -13 16 -21 21 -21
13z"/>
</g>
</svg>
